<?xml version="1.0" standalone="no"?>
<!DOCTYPE svg PUBLIC "-//W3C//DTD SVG 20010904//EN"
 "http://www.w3.org/TR/2001/REC-SVG-20010904/DTD/svg10.dtd">
<svg version="1.0" xmlns="http://www.w3.org/2000/svg"
 width="150.000000pt" height="150.000000pt" viewBox="0 0 150.000000 150.000000"
 preserveAspectRatio="xMidYMid meet">

<g transform="translate(0.000000,150.000000) scale(0.100000,-0.100000)"
fill="#fff" stroke="none">
<path d="M695 1490 c-4 -6 -12 -43 -18 -83 -14 -77 -24 -89 -95 -103 -28 -6
-34 -1 -78 55 -26 34 -52 61 -58 61 -21 0 -116 -55 -116 -67 0 -7 11 -43 25
-80 l26 -67 -40 -40 -39 -39 -72 27 c-39 14 -75 26 -80 26 -10 0 -70 -98 -70
-115 0 -5 27 -31 59 -57 l59 -47 -13 -52 c-8 -28 -16 -53 -18 -56 -3 -2 -36
-9 -73 -14 -84 -11 -96 -24 -92 -99 l3 -55 45 -8 c122 -23 114 -18 129 -76
l15 -54 -30 -26 c-16 -14 -45 -38 -64 -52 l-34 -26 17 -39 c10 -21 26 -50 36
-62 l17 -24 62 26 c34 14 70 26 81 26 20 0 81 -62 81 -84 0 -7 -11 -41 -25
-75 -30 -72 -29 -75 44 -115 l50 -27 48 61 c46 57 50 60 86 56 65 -7 83 -26
91 -96 11 -92 9 -90 86 -90 l68 0 11 50 c6 28 11 61 11 74 0 33 20 46 78 53
l49 5 39 -55 c23 -34 47 -56 58 -57 24 0 116 50 116 64 0 6 -12 41 -27 79
l-27 69 44 39 c47 42 53 43 122 8 58 -29 75 -25 108 28 17 26 30 52 30 59 0 7
-27 34 -60 60 -33 26 -60 49 -60 51 0 3 7 29 15 57 l16 53 76 11 c42 6 80 16
84 24 5 7 9 39 9 70 0 63 1 62 -85 74 -27 3 -57 10 -66 15 -14 7 -39 76 -39
106 0 5 27 29 60 54 32 24 59 48 60 52 0 17 -52 108 -66 114 -8 3 -40 -4 -70
-16 -74 -28 -84 -27 -122 12 -39 40 -39 50 -7 119 14 29 25 59 25 65 0 13 -96
73 -116 73 -7 0 -31 -25 -55 -55 -43 -54 -45 -55 -87 -50 -70 8 -78 16 -85 87
-7 80 -13 95 -40 102 -36 9 -105 7 -112 -4z m158 -235 c103 -22 192 -70 267
-145 282 -283 157 -761 -229 -874 -71 -21 -211 -21 -282 0 -194 57 -338 216
-376 416 -27 148 13 301 111 420 81 97 178 156 301 183 79 18 126 18 208 0z"/>
<path d="M724 1235 c-7 -18 3 -35 22 -35 15 0 17 9 8 34 -8 20 -23 21 -30 1z"/>
<path d="M792 1230 c-7 -19 -6 -26 5 -28 21 -5 25 2 14 29 l-9 24 -10 -25z"/>
<path d="M641 1233 c0 -4 4 -17 9 -28 8 -19 9 -19 9 2 1 12 -3 25 -9 28 -5 3
-10 3 -9 -2z"/>
<path d="M671 1210 c0 -14 3 -20 5 -13 3 7 12 9 20 6 9 -3 14 1 14 14 0 12 -7
19 -20 19 -15 0 -20 -7 -19 -26z"/>
<path d="M828 1232 c7 -5 10 -16 6 -25 -3 -9 -2 -17 4 -17 5 0 12 11 14 25 4
20 1 25 -16 25 -15 0 -17 -3 -8 -8z"/>
<path d="M600 1205 c0 -14 -4 -25 -10 -25 -5 0 -9 3 -9 8 3 20 -2 31 -15 26
-8 -3 -12 -13 -9 -25 4 -15 2 -18 -11 -13 -9 3 -13 10 -10 15 8 13 -8 10 -28
-5 -10 -7 -15 -16 -11 -19 3 -4 -1 -7 -11 -7 -14 0 -15 -4 -6 -20 10 -18 13
-19 25 -6 9 8 12 22 9 33 -6 17 -6 17 8 -1 11 -14 19 -16 34 -8 10 6 33 16 50
22 24 9 31 16 27 31 -8 28 -33 24 -33 -6z"/>
<path d="M870 1205 c0 -29 23 -34 40 -7 11 16 11 15 5 -2 -7 -23 14 -39 32
-24 20 16 16 27 -13 38 -21 8 -29 7 -41 -7 -14 -17 -14 -16 -10 5 3 12 1 22
-4 22 -5 0 -9 -11 -9 -25z"/>
<path d="M966 1173 c-4 -9 -2 -21 4 -27 9 -9 15 4 11 27 -1 5 3 6 9 2 5 -3 10
-1 10 4 0 17 -27 13 -34 -6z"/>
<path d="M618 1161 c-284 -93 -396 -419 -230 -669 42 -65 130 -132 208 -162
217 -81 451 16 553 229 34 73 36 81 36 181 0 85 -5 116 -23 160 -45 111 -143
209 -252 252 -78 30 -215 35 -292 9z m-6 -111 c103 -29 155 -137 113 -237 -12
-28 -18 -34 -27 -25 -7 7 -24 12 -38 12 -24 0 -28 6 -44 68 -15 57 -23 71 -54
94 -44 31 -57 34 -94 24 -35 -10 -36 -22 -2 -30 47 -12 74 -36 74 -67 0 -16
-3 -29 -7 -30 -5 0 -16 -2 -25 -4 -9 -2 -20 4 -24 13 -5 14 -8 13 -14 -8 -5
-14 -8 -40 -9 -57 l-1 -33 85 0 c50 0 85 4 85 10 0 6 14 10 30 10 45 0 39 -31
-11 -59 -33 -19 -51 -22 -95 -19 -151 13 -216 193 -107 295 50 47 101 60 165
43z m415 -21 c62 -39 95 -126 73 -194 -48 -146 -239 -170 -316 -39 -91 155 89
328 243 233z m-445 -111 c2 -7 1 -26 -3 -43 -4 -20 -7 -23 -8 -10 -1 11 -4 30
-7 43 -7 23 11 32 18 10z m248 -193 c28 -15 62 -50 79 -82 14 -28 14 -101 0
-142 -10 -28 -29 -43 -29 -22 0 5 -19 16 -42 26 -40 16 -43 15 -55 -1 -20 -27
-10 49 11 81 10 15 14 34 11 45 -4 11 -2 20 4 20 17 0 -9 59 -30 71 -27 14
-81 4 -96 -17 -15 -21 -17 -54 -3 -54 6 0 6 -7 -1 -18 -9 -15 -8 -24 6 -46 10
-15 19 -41 20 -58 2 -17 0 -26 -4 -20 -8 13 -63 1 -86 -18 -33 -28 -51 100
-22 156 46 88 150 123 237 79z m-107 -254 c3 -13 1 -18 -9 -14 -7 2 -10 11 -7
19 7 19 10 18 16 -5z m-68 0 c3 -5 1 -12 -5 -16 -5 -3 -10 1 -10 9 0 18 6 21
15 7z m32 -6 c0 -8 -4 -12 -9 -9 -4 3 -8 9 -8 15 0 5 4 9 8 9 5 0 9 -7 9 -15z
m74 -12 c-12 -20 -14 -14 -5 12 4 9 9 14 11 11 3 -2 0 -13 -6 -23z m-84 -19
c-3 -3 -12 -4 -19 -1 -8 3 -5 6 6 6 11 1 17 -2 13 -5z m73 -19 c0 -8 -4 -15
-8 -15 -5 0 -9 7 -9 15 0 8 4 15 9 15 4 0 8 -7 8 -15z m37 -7 c-3 -8 -6 -5 -6
6 -1 11 2 17 5 13 3 -3 4 -12 1 -19z"/>
<path d="M867 917 c4 -48 1 -81 -7 -96 -13 -24 -4 -44 9 -22 7 11 11 10 18 -4
15 -26 27 0 13 26 -11 20 -9 87 4 139 3 14 4 19 0 13 -8 -19 -37 -16 -30 2 3
8 1 15 -4 15 -4 0 -6 -33 -3 -73z"/>
<path d="M926 981 c-3 -5 1 -11 9 -15 12 -4 15 -25 15 -101 0 -62 4 -94 10
-90 6 3 10 48 10 101 0 83 2 94 18 95 14 0 14 2 -3 9 -27 12 -53 12 -59 1z"/>
<path d="M1001 1157 c-13 -13 -15 -31 -2 -23 5 4 11 0 14 -6 3 -10 7 -10 17
-1 10 9 10 15 -2 27 -11 11 -18 12 -27 3z"/>
<path d="M460 1132 c11 -22 10 -23 -9 -13 -27 15 -31 14 -31 -9 0 -24 32 -27
50 -4 11 12 10 18 -5 32 -16 16 -17 16 -5 -6z"/>
<path d="M1053 1133 c4 -3 2 -12 -5 -20 -16 -19 -6 -24 16 -8 18 14 15 35 -6
35 -6 0 -8 -3 -5 -7z"/>
<path d="M1076 1091 c-14 -16 -15 -19 -2 -24 19 -7 43 20 29 34 -6 6 -15 3
-27 -10z"/>
<path d="M395 1090 c3 -5 -2 -10 -11 -10 -16 0 -16 -1 1 -20 19 -21 7 -28 -13
-8 -8 8 -15 9 -22 2 -8 -8 -6 -15 5 -24 20 -17 51 -1 49 24 -1 9 5 16 13 16
13 0 13 3 3 15 -14 17 -35 21 -25 5z"/>
<path d="M1115 1030 c-3 -5 -2 -10 4 -10 6 0 13 -11 17 -25 6 -24 34 -36 34
-14 0 5 5 7 10 4 6 -3 10 -2 10 4 0 15 -23 26 -28 13 -2 -7 -8 -10 -13 -6 -5
3 -5 13 1 25 9 16 7 19 -9 19 -11 0 -23 -4 -26 -10z"/>
<path d="M310 994 c0 -2 9 -8 19 -13 14 -8 22 -7 30 3 8 10 4 13 -19 13 -17 0
-30 -2 -30 -3z"/>
<path d="M300 962 c0 -4 6 -14 13 -21 10 -11 8 -13 -10 -8 -29 6 -31 -9 -2
-16 15 -4 22 1 30 19 12 34 12 34 -11 34 -11 0 -20 -4 -20 -8z"/>
<path d="M1170 960 c-13 -9 -13 -12 0 -23 9 -6 14 -20 12 -29 -2 -12 3 -18 13
-18 13 0 15 -3 7 -13 -7 -8 -7 -18 -2 -27 8 -13 10 -12 10 3 0 20 16 23 23 5
3 -8 6 -6 6 5 1 9 -4 17 -10 17 -6 0 -8 9 -4 21 5 15 2 22 -14 26 -22 5 -29
23 -10 23 5 0 7 5 4 10 -8 13 -16 12 -35 0z m40 -50 c0 -5 -5 -10 -11 -10 -5
0 -7 5 -4 10 3 6 8 10 11 10 2 0 4 -4 4 -10z"/>
<path d="M272 893 c2 -10 12 -19 22 -21 11 -3 16 0 12 7 -4 6 -1 11 6 11 9 0
9 3 -2 10 -24 15 -42 12 -38 -7z"/>
<path d="M256 853 c-8 -20 -6 -21 22 -14 22 6 22 6 3 18 -16 10 -20 9 -25 -4z"/>
<path d="M1210 830 c-12 -8 -11 -10 7 -10 12 0 25 5 28 10 8 13 -15 13 -35 0z"/>
<path d="M250 804 c0 -8 8 -13 18 -11 24 4 26 22 2 23 -11 1 -20 -5 -20 -12z"/>
<path d="M1210 790 c0 -18 3 -19 20 -10 11 6 20 15 20 20 0 6 -9 10 -20 10
-13 0 -20 -7 -20 -20z"/>
<path d="M260 769 l25 -12 -25 -7 -25 -8 28 -1 c22 -1 28 3 25 17 -2 10 -14
18 -28 19 l-25 3 25 -11z"/>
<path d="M1225 760 c-11 -5 -15 -9 -8 -9 6 -1 18 -4 27 -7 11 -4 16 -1 16 10
0 18 -6 19 -35 6z"/>
<path d="M252 718 c-19 -19 -14 -28 14 -28 18 0 25 5 22 17 -4 21 -21 26 -36
11z m23 -8 c3 -5 1 -10 -4 -10 -6 0 -11 5 -11 10 0 6 2 10 4 10 3 0 8 -4 11
-10z"/>
<path d="M1218 723 c6 -2 18 -2 25 0 6 3 1 5 -13 5 -14 0 -19 -2 -12 -5z"/>
<path d="M1212 698 c-8 -8 -9 -15 -1 -25 7 -8 8 -13 1 -13 -12 0 -10 -33 3
-42 15 -12 27 -9 19 3 -3 6 0 15 7 20 12 7 12 9 0 9 -11 0 -11 3 -1 15 12 15
7 45 -8 45 -4 0 -13 -5 -20 -12z"/>
<path d="M250 670 c0 -5 6 -10 13 -10 8 0 7 -4 -3 -10 -11 -7 -8 -10 15 -9 17
0 24 3 17 6 -10 4 -10 8 -1 19 9 11 7 14 -15 14 -14 0 -26 -4 -26 -10z"/>
<path d="M270 620 c-13 -9 -13 -10 0 -10 8 0 22 5 30 10 13 9 13 10 0 10 -8 0
-22 -5 -30 -10z"/>
<path d="M285 580 c3 -5 8 -10 11 -10 2 0 4 5 4 10 0 6 -5 10 -11 10 -5 0 -7
-4 -4 -10z"/>
<path d="M300 540 c-9 -6 -10 -10 -3 -10 6 0 15 5 18 10 8 12 4 12 -15 0z"/>
<path d="M1100 436 c0 -2 7 -7 16 -10 8 -3 12 -2 9 4 -6 10 -25 14 -25 6z"/>
<path d="M386 402 c-3 -5 1 -9 9 -9 8 0 12 4 9 9 -3 4 -7 8 -9 8 -2 0 -6 -4
-9 -8z"/>
<path d="M527 313 c-4 -3 -7 -11 -7 -17 0 -6 5 -5 12 2 6 6 9 14 7 17 -3 3 -9
2 -12 -2z"/>
<path d="M595 289 c-4 -6 -5 -12 -2 -15 2 -3 7 2 10 11 7 17 1 20 -8 4z"/>
<path d="M820 265 c0 -8 2 -15 4 -15 2 0 6 7 10 15 3 8 1 15 -4 15 -6 0 -10
-7 -10 -15z"/>
<path d="M675 260 c-16 -7 -17 -9 -3 -9 9 -1 20 4 23 9 7 11 7 11 -20 0z"/>
</g>
</svg>
